<svg width="12" height="12" viewBox="0 0 12 12" fill="none" xmlns="http://www.w3.org/2000/svg">
<path d="M10.5 6C10.5 5.05975 10.2055 4.14313 9.65781 3.37885C9.11014 2.61457 8.33682 2.04105 7.44648 1.73881C6.55613 1.43658 5.59348 1.42083 4.69372 1.69377C3.79396 1.96671 3.0023 2.51463 2.42991 3.26057C1.85752 4.00652 1.53317 4.91302 1.50241 5.85276C1.47165 6.79251 1.73601 7.71828 2.25839 8.50007C2.78076 9.28185 3.53489 9.88038 4.41487 10.2116C5.29486 10.5428 6.25648 10.59 7.16469 10.3467" stroke="#565656" stroke-linecap="round"/>
<circle cx="6" cy="6" r="2" stroke="#565656"/>
<path d="M8 4.5V6.75C8 7.44036 8.55964 8 9.25 8V8C9.94036 8 10.5 7.44036 10.5 6.75V6" stroke="#565656" stroke-linecap="round"/>
</svg>
