<svg width="12" height="8" viewBox="0 0 12 8" fill="none" xmlns="http://www.w3.org/2000/svg">
<path fill-rule="evenodd" clip-rule="evenodd" d="M11.9246 4C11.9246 3.61086 11.7152 3.38256 11.2964 2.92594C10.2097 1.74113 8.22749 0 5.96228 0C3.69707 0 1.71483 1.74113 0.628181 2.92594C0.209394 3.38256 -3.72529e-09 3.61086 0 4C3.72529e-09 4.38914 0.209394 4.61744 0.628181 5.07406C1.71483 6.25887 3.69707 8 5.96228 8C8.22749 8 10.2097 6.25887 11.2964 5.07406C11.7152 4.61744 11.9246 4.38914 11.9246 4ZM5.96229 6C7.10675 6 8.03452 5.10457 8.03452 4C8.03452 2.89543 7.10675 2 5.96229 2C4.81783 2 3.89006 2.89543 3.89006 4C3.89006 5.10457 4.81783 6 5.96229 6Z" fill="#6A6A6A"/>
</svg>
