<svg width="12" height="11" viewBox="0 0 12 11" fill="none" xmlns="http://www.w3.org/2000/svg">
<path d="M1.81497 1L10.948 9.9771" stroke="#6A6A6A" stroke-width="2"/>
<path fill-rule="evenodd" clip-rule="evenodd" d="M10.6266 7.74742C11.0205 7.3716 11.3503 7.00788 11.6017 6.71048C11.8672 6.39629 12 6.2392 12 6C12 5.7608 11.8672 5.60371 11.6017 5.28953C10.6301 4.14009 8.48731 2 6 2C5.6155 2 5.23923 2.05114 4.87424 2.14186L7.10116 4.31193C7.35486 4.46942 7.57068 4.67972 7.73228 4.92695L10.6266 7.74742ZM4.01423 5.49264C3.97076 5.65467 3.94761 5.8247 3.94761 6C3.94761 7.10457 4.8665 8 6 8C6.17989 8 6.35438 7.97745 6.52065 7.93508L8.13019 9.50354C7.46639 9.80604 6.7488 10 6 10C3.51269 10 1.36985 7.85991 0.398329 6.71047C0.132776 6.39629 0 6.2392 0 6C0 5.7608 0.132777 5.60371 0.39833 5.28952C0.790372 4.82569 1.37315 4.20054 2.09233 3.6198L4.01423 5.49264Z" fill="#6A6A6A"/>
</svg>
